HIERARCHY
ROOT HipCenter
{
    OFFSET 0.0 0.0 -0.0
    CHANNELS 6 Xposition Yposition Zposition Zrotation Xrotation Yrotation
    JOINT Spine
    {
        OFFSET 0.0 0.10539129376411438 0.0
        CHANNELS 3 Zrotation Xrotation Yrotation
        JOINT ShoulderCenter
        {
            OFFSET 0.0 0.31030890345573425 0.0
            CHANNELS 3 Zrotation Xrotation Yrotation
            JOINT LeftShoulder
            {
                OFFSET 0.19471313059329987 0.0 0.0
                CHANNELS 3 Zrotation Xrotation Yrotation
                JOINT LeftElbow
                {
                    OFFSET 0.2616344094276428 0.0 0.0
                    CHANNELS 3 Zrotation Xrotation Yrotation
                    JOINT LeftWrist
                    {
                        OFFSET 0.30867743492126465 0.0 0.0
                        CHANNELS 3 Zrotation Xrotation Yrotation
                        JOINT LeftHand
                        {
                            OFFSET 0.031324855983257294 0.0 0.0
                            CHANNELS 3 Zrotation Xrotation Yrotation
                            End Site
                            {
                                OFFSET 0.012529943138360977 0.0 0.0
                            }
                        }
                    }
                }
            }
            JOINT RightShoulder
            {
                OFFSET -0.19471313059329987 0.0 0.0
                CHANNELS 3 Zrotation Xrotation Yrotation
                JOINT RightElbow
                {
                    OFFSET -0.2616344094276428 0.0 0.0
                    CHANNELS 3 Zrotation Xrotation Yrotation
                    JOINT RightWrist
                    {
                        OFFSET -0.30867743492126465 0.0 0.0
                        CHANNELS 3 Zrotation Xrotation Yrotation
                        JOINT RightHand
                        {
                            OFFSET -0.031324855983257294 0.0 0.0
                            CHANNELS 3 Zrotation Xrotation Yrotation
                            End Site
                            {
                                OFFSET -0.012529943138360977 0.0 0.0
                            }
                        }
                    }
                }
            }
            End Site
            {
                OFFSET 0.0 0.12412355840206146 0.0
            }
        }
    }
    JOINT LeftHip
    {
        OFFSET 0.14161141216754913 0.0 0.0
        CHANNELS 3 Zrotation Xrotation Yrotation
        JOINT LeftKnee
        {
            OFFSET 0.0 -0.4167487919330597 0.0
            CHANNELS 3 Zrotation Xrotation Yrotation
            JOINT LeftAnkle
            {
                OFFSET 0.0 -0.436779260635376 0.0
                CHANNELS 3 Zrotation Xrotation Yrotation
                JOINT LeftFoot
                {
                    OFFSET 0.0 -0.11314952373504639 0.0
                    CHANNELS 3 Zrotation Xrotation Yrotation
                    End Site
                    {
                        OFFSET 0.0 0.0 0.045259807258844376
                    }
                }
            }
        }
    }
    JOINT RightHip
    {
        OFFSET -0.14161141216754913 0.0 0.0
        CHANNELS 3 Zrotation Xrotation Yrotation
        JOINT RightKnee
        {
            OFFSET 0.0 -0.4167487919330597 0.0
            CHANNELS 3 Zrotation Xrotation Yrotation
            JOINT RightAnkle
            {
                OFFSET 0.0 -0.436779260635376 0.0
                CHANNELS 3 Zrotation Xrotation Yrotation
                JOINT RightFoot
                {
                    OFFSET 0.0 -0.11314952373504639 0.0
                    CHANNELS 3 Zrotation Xrotation Yrotation
                    End Site
                    {
                        OFFSET 0.0 0.0 0.045259807258844376
                    }
                }
            }
        }
    }
}
MOTION
Frames: 4
Frame Time: 0.03333333333333333
-0.03500000014901161 0.05400000140070915 0.3149999976158142 -1.6365765539818344 -1.6359051585168078 -1.241566237400493 -0.00579279643589854 -0.9491499994037361 0.03838755258221346 7.569583510352334e-08 2.2456535290396333e-07 8.708859185769487 86.1265136507527 -24.573103980796517 -179.89094155908924 4.203239110047036e-06 -1.7829692953207566e-06 104.41102009645441 5.06550527656635e-06 -81.96940387881614 25.622114777230582 0.0 0.0 2.5842006786891068e-15 -118.12716419164148 -40.09159209408959 166.90974003409875 -1.033045568475417e-06 1.694257002857688e-06 -105.00509211838323 -2.667537606030307e-05 -88.97132716590123 -45.330974252759 0.0 0.0 -1.9878466759146976e-15 6.435067836864193 -3.2367090099876874 -23.85977256656358 -7.718016384817455 22.487165203707896 -23.210118847658304 91.29613493831054 -35.139169862965005 149.98086552602683 -3.1805546814635176e-15 -6.361109362927035e-15 -1.5902773407317592e-15 -22.264001405105752 0.6346275735817144 42.27074649839019 -0.03165109837682377 0.05008370882377003 0.10550332234839022 -63.585980436457135 -44.7094563812934 -138.19477465436918 0.0 0.0 3.1805546814635176e-15
-0.03500000014901161 0.05400000140070915 0.3160000145435333 -1.6365765126556455 -1.6359212944024217 -1.2415656178002716 -0.00697345598780783 -1.1424859990271112 0.04618266872102667 1.5306643754108504e-08 -3.924487540887513e-07 9.303571786225111 86.26380955221745 -25.583571799801494 -179.44810204603277 4.034273597032423e-06 -1.7733558191282164e-06 104.32988115963487 2.8578773508607277e-05 -81.95924629810649 27.7811887716984 -1.5902773407317582e-15 -7.951386703658791e-16 -3.9756933518293955e-16 -118.67063134699585 -41.293421623151126 167.24400996123467 1.6158196980186146e-07 9.634806922509422e-07 -104.73953222001617 179.99995531750744 -87.56409880197309 133.06542398273328 2.1517793202994523e-31 -3.1805546814635168e-15 7.752602036067322e-15 6.4350670314582885 -3.2366892351051963 -23.859780607758786 -7.779081625376034 22.598737614131714 -23.26300012235683 91.44709561984136 -35.06097203632768 150.0767213651261 -3.1805546814635176e-15 -6.361109362927035e-15 -1.5902773407317592e-15 -22.380170491922698 0.3587403070406158 42.00369185303117 0.1547166795402843 0.07753252447641859 0.163953414752975 -64.14439695075009 -44.867464685485025 -138.7709858086529 0.0 0.0 1.5902773407317582e-15
-0.03500000014901161 0.05400000140070915 0.31700000166893005 -2.1816419899986514 -2.1800661579344394 -0.5897210204194254 0.7039254881822474 -0.5911166129916902 0.02571614708482293 6.731292395048297e-08 -1.267981026516877e-07 8.789546015510167 86.13309987009129 -25.588031825064437 -179.25565646812194 5.408883289143394e-07 1.2408849878485006e-06 104.3936211036885 2.2189641973258404e-05 -83.65010683626217 27.35421377848507 0.0 0.0 1.987846675914698e-15 -119.70853437922648 -42.50711041809431 166.7979861553771 -4.226602142911946e-06 1.5092112299918494e-06 -104.09258691742828 -179.99984067988598 -88.64897704627455 133.82577718206448 -1.5902773407317584e-15 2.4828222926532145e-32 -1.7890620083232284e-15 7.071207783017185 -2.7638550570122216 -24.325358977715236 -7.794298143963986 22.575449173785863 -23.61881380280291 91.44586744953958 -34.99122434276991 150.49965056670945 -1.7655625192200634e-31 6.3611093629270335e-15 3.1805546814635168e-15 -22.018953623692024 1.117941060152997 42.56941926859144 0.1167639448502574 -0.06241092062548249 -0.13159913257396058 -64.2879357642778 -44.71228048699557 -138.92930801713334 -3.1805546814635168e-15 4.4139062980501586e-32 -1.5902773407317584e-15
-0.035999998450279236 0.05400000140070915 0.31700000166893005 -2.7263107600584626 -2.1791790518306686 -0.6103089296584687 1.248177635081743 -0.5863068184722925 0.02550687826819106 -7.937843894278342e-08 -3.839521756617693e-07 8.937513498096454 85.89651427224535 -25.160333918098754 -179.30502732184019 3.7754608826472046e-06 1.8628087530310574e-06 104.19198838473248 6.51843216899711e-05 -86.35318150451445 26.98155545651191 -7.862270593401845e-32 -2.3854160110976376e-15 -3.776908684237926e-15 -119.9297987161617 -42.76788827379557 166.87870548880852 3.926092510195936e-07 1.5790730270825632e-06 -104.27786986650811 -179.99999604722566 -87.85593616128895 135.2019447938353 0.0 0.0 1.3914926731402884e-15 7.7537571253175885 -2.757302096142224 -24.75457856828756 -8.223259127820324 22.402487023748773 -22.950736401618002 90.63460220540674 -35.204363295707196 149.20205833057037 0.0 0.0 -3.1805546814635168e-15 -21.291365421686237 0.9913172807661417 43.397433009114614 -0.10195600121008164 -0.03661603387915219 -0.07759533375642509 -64.18390963834575 -44.24630363475183 -139.1707741943637 0.0 0.0 0.0
